<mxfile host="app.diagrams.net" agent="Mozilla/5.0 (Windows NT 10.0; Win64; x64) AppleWebKit/537.36 (KHTML, like Gecko) Chrome/133.0.0.0 Safari/537.36 Edg/133.0.0.0" version="25.0.3">
  <diagram name="第 1 页" id="TFS3b3rrfouwaiExrDPL">
    <mxGraphModel dx="1426" dy="747" grid="1" gridSize="10" guides="1" tooltips="1" connect="1" arrows="1" fold="1" page="1" pageScale="1" pageWidth="827" pageHeight="1169" math="0" shadow="0">
      <root>
        <mxCell id="0" />
        <mxCell id="1" parent="0" />
        <mxCell id="ichkqEVvYfuikgpGFqFZ-1" value="Web页面" style="ellipse;whiteSpace=wrap;html=1;" vertex="1" parent="1">
          <mxGeometry x="70" y="160" width="90" height="60" as="geometry" />
        </mxCell>
        <mxCell id="ichkqEVvYfuikgpGFqFZ-3" value="后台服务" style="rounded=0;whiteSpace=wrap;html=1;" vertex="1" parent="1">
          <mxGeometry x="70" y="270" width="90" height="50" as="geometry" />
        </mxCell>
        <mxCell id="ichkqEVvYfuikgpGFqFZ-4" value="烧录服务" style="rounded=0;whiteSpace=wrap;html=1;" vertex="1" parent="1">
          <mxGeometry x="260" y="270" width="90" height="50" as="geometry" />
        </mxCell>
        <mxCell id="ichkqEVvYfuikgpGFqFZ-5" value="数据库" style="shape=cylinder3;whiteSpace=wrap;html=1;boundedLbl=1;backgroundOutline=1;size=15;" vertex="1" parent="1">
          <mxGeometry x="60" y="450" width="90" height="60" as="geometry" />
        </mxCell>
        <mxCell id="ichkqEVvYfuikgpGFqFZ-7" value="序列号文件" style="shape=note;whiteSpace=wrap;html=1;backgroundOutline=1;darkOpacity=0.05;" vertex="1" parent="1">
          <mxGeometry x="230" y="450" width="90" height="50" as="geometry" />
        </mxCell>
        <mxCell id="ichkqEVvYfuikgpGFqFZ-14" style="edgeStyle=orthogonalEdgeStyle;rounded=0;orthogonalLoop=1;jettySize=auto;html=1;exitX=0;exitY=0.5;exitDx=0;exitDy=0;entryX=1;entryY=0.5;entryDx=0;entryDy=0;" edge="1" parent="1" source="ichkqEVvYfuikgpGFqFZ-8" target="ichkqEVvYfuikgpGFqFZ-4">
          <mxGeometry relative="1" as="geometry" />
        </mxCell>
        <mxCell id="ichkqEVvYfuikgpGFqFZ-15" style="edgeStyle=orthogonalEdgeStyle;rounded=0;orthogonalLoop=1;jettySize=auto;html=1;exitX=0.25;exitY=1;exitDx=0;exitDy=0;entryX=0.264;entryY=0.02;entryDx=0;entryDy=0;entryPerimeter=0;" edge="1" parent="1" source="ichkqEVvYfuikgpGFqFZ-8" target="ichkqEVvYfuikgpGFqFZ-9">
          <mxGeometry relative="1" as="geometry" />
        </mxCell>
        <mxCell id="ichkqEVvYfuikgpGFqFZ-8" value="工厂烧录客户端" style="rounded=1;whiteSpace=wrap;html=1;" vertex="1" parent="1">
          <mxGeometry x="490" y="265" width="110" height="60" as="geometry" />
        </mxCell>
        <mxCell id="ichkqEVvYfuikgpGFqFZ-16" style="edgeStyle=orthogonalEdgeStyle;rounded=0;orthogonalLoop=1;jettySize=auto;html=1;exitX=0.625;exitY=0;exitDx=0;exitDy=0;entryX=0.75;entryY=1;entryDx=0;entryDy=0;" edge="1" parent="1" source="ichkqEVvYfuikgpGFqFZ-9" target="ichkqEVvYfuikgpGFqFZ-8">
          <mxGeometry relative="1" as="geometry" />
        </mxCell>
        <mxCell id="ichkqEVvYfuikgpGFqFZ-9" value="STB" style="shape=hexagon;perimeter=hexagonPerimeter2;whiteSpace=wrap;html=1;fixedSize=1;" vertex="1" parent="1">
          <mxGeometry x="490" y="500" width="120" height="50" as="geometry" />
        </mxCell>
        <mxCell id="ichkqEVvYfuikgpGFqFZ-10" style="edgeStyle=orthogonalEdgeStyle;rounded=0;orthogonalLoop=1;jettySize=auto;html=1;exitX=0.25;exitY=1;exitDx=0;exitDy=0;entryX=0.356;entryY=0.033;entryDx=0;entryDy=0;entryPerimeter=0;" edge="1" parent="1" source="ichkqEVvYfuikgpGFqFZ-3" target="ichkqEVvYfuikgpGFqFZ-5">
          <mxGeometry relative="1" as="geometry" />
        </mxCell>
        <mxCell id="ichkqEVvYfuikgpGFqFZ-11" style="edgeStyle=orthogonalEdgeStyle;rounded=0;orthogonalLoop=1;jettySize=auto;html=1;exitX=0.75;exitY=1;exitDx=0;exitDy=0;entryX=0;entryY=0;entryDx=30;entryDy=0;entryPerimeter=0;" edge="1" parent="1" source="ichkqEVvYfuikgpGFqFZ-3" target="ichkqEVvYfuikgpGFqFZ-7">
          <mxGeometry relative="1" as="geometry" />
        </mxCell>
        <mxCell id="ichkqEVvYfuikgpGFqFZ-12" style="edgeStyle=orthogonalEdgeStyle;rounded=0;orthogonalLoop=1;jettySize=auto;html=1;exitX=0.25;exitY=1;exitDx=0;exitDy=0;entryX=0.855;entryY=0;entryDx=0;entryDy=4.35;entryPerimeter=0;" edge="1" parent="1" source="ichkqEVvYfuikgpGFqFZ-4" target="ichkqEVvYfuikgpGFqFZ-5">
          <mxGeometry relative="1" as="geometry">
            <Array as="points">
              <mxPoint x="323" y="350" />
              <mxPoint x="220" y="350" />
              <mxPoint x="220" y="400" />
              <mxPoint x="137" y="400" />
            </Array>
          </mxGeometry>
        </mxCell>
        <mxCell id="ichkqEVvYfuikgpGFqFZ-13" style="edgeStyle=orthogonalEdgeStyle;rounded=0;orthogonalLoop=1;jettySize=auto;html=1;exitX=0.75;exitY=1;exitDx=0;exitDy=0;entryX=0;entryY=0;entryDx=60;entryDy=0;entryPerimeter=0;" edge="1" parent="1" source="ichkqEVvYfuikgpGFqFZ-4" target="ichkqEVvYfuikgpGFqFZ-7">
          <mxGeometry relative="1" as="geometry" />
        </mxCell>
      </root>
    </mxGraphModel>
  </diagram>
</mxfile>
